<svg width="160" height="160" viewBox="0 0 160 160" fill="none" xmlns="http://www.w3.org/2000/svg" role="img" aria-label="Miran Bistro emblem">
  <defs>
    <linearGradient id="ring" x1="0" y1="0" x2="1" y2="1">
      <stop offset="0%" stop-color="#fb923c"/>
      <stop offset="100%" stop-color="#e11d48"/>
    </linearGradient>
    <linearGradient id="flame" x1="0" y1="1" x2="0" y2="0">
      <stop offset="0%" stop-color="#f97316"/>
      <stop offset="60%" stop-color="#fbbf24"/>
      <stop offset="100%" stop-color="#fde68a"/>
    </linearGradient>
  </defs>
  <circle cx="80" cy="80" r="74" fill="#16110d"/>
  <circle cx="80" cy="80" r="74" fill="none" stroke="url(#ring)" stroke-width="4"/>
  <circle cx="80" cy="80" r="64" fill="none" stroke="#3a2d22" stroke-width="1.5"/>
  <path d="M80 36 C72 54 58 58 58 78 C58 98 68 110 80 110 C92 110 102 98 102 78 C102 64 92 60 92 50 C88 56 86 50 80 36 Z" fill="url(#flame)"/>
  <path d="M80 64 C76 72 70 74 70 86 C70 96 74 102 80 102 C86 102 90 96 90 86 C90 78 86 76 84 70 C82 74 82 70 80 64 Z" fill="#16110d" opacity="0.55"/>
  <text x="80" y="134" text-anchor="middle" font-family="Georgia, serif" font-size="18" letter-spacing="3" fill="#f8f1e7">MIRAN</text>
</svg>
